<svg xmlns="http://www.w3.org/2000/svg" viewBox="0 0 804.3 258.3">
  <path d="M355.9 15.4L331.7 47l-94.6 209.8-61.6-128.6-58.2 128.6-96.9-202-20-20.2L55.7 1.5l75.8 158.2L160 96.4l-20-41.6-20-20.2 55.3-33.1 75.8 158.2 50.7-112.6-23.9-31.6h78zM371.9 243.5h-57.3v-55.6h57.3v55.6zM503.3 243.5H397.8l23.9-31.6V47.1l-23.9-31.6h105.5L479 47.1v164.8l24.3 31.6zM586.3 243.5H529v-55.6h57.3v55.6zM803.9 84.7c0 16.7-6.8 31-20.5 42.8-14.6 12.5-35.7 20.7-63.3 24.5l-26.5 3.7v56.2l24.2 31.6H612.3l23.9-31.6V47.1l-23.9-31.6h106.6c24.9 0 45.5 7.1 61.9 21.4 15.4 13.4 23.1 29.4 23.1 47.8zm-55.6 22.2c0-14.6-5.4-28-16.1-40.2-10.7-12.2-23.6-19.5-38.6-22v68.4l47.6 19.7c4.7-8.1 7.1-16.7 7.1-25.9z"/>
</svg>
