<?xml version="1.0" encoding="utf-8"?>
<!-- Generator: Adobe Illustrator 22.0.1, SVG Export Plug-In . SVG Version: 6.00 Build 0)  -->
<svg version="1.1" id="instagramSymbolLayer" xmlns="http://www.w3.org/2000/svg" xmlns:xlink="http://www.w3.org/1999/xlink"
	 x="0px" y="0px" viewBox="0 0 24 24" style="enable-background:new 0 0 24 24;" xml:space="preserve">
<style type="text/css">
	.st0{fill:none;}
</style>
<path id="camerInner" class="st0" d="M14.3,12c0,1.3-1,2.3-2.3,2.3s-2.3-1-2.3-2.3s1-2.3,2.3-2.3S14.3,10.7,14.3,12z"/>
<path id="cameraInner" class="st0" d="M17.7,9.2c0-0.7-0.1-1-0.2-1.3S17.2,7.4,17,7.1s-0.5-0.4-0.8-0.5c-0.2-0.1-0.6-0.2-1.3-0.2
	s-1,0-2.8,0h-0.6c-1.3,0-1.6,0-2.2,0c-0.7,0-1,0.1-1.3,0.2C7.5,6.7,7.3,6.8,7.1,7.1S6.7,7.5,6.5,7.9C6.4,8.1,6.3,8.5,6.3,9.2
	s0,1,0,2.8s0,2.1,0,2.8s0.1,1.1,0.2,1.3c0.1,0.3,0.3,0.5,0.5,0.8s0.5,0.4,0.8,0.5c0.2,0.1,0.6,0.2,1.3,0.2s1,0,2.8,0s2.1,0,2.8,0
	c0.7,0,1-0.1,1.3-0.2s0.5-0.3,0.8-0.5s0.4-0.5,0.5-0.8c0.1-0.2,0.2-0.6,0.2-1.3s0-1,0-2.8S17.7,9.9,17.7,9.2z M12,15.6
	c-2,0-3.6-1.6-3.6-3.6S10,8.4,12,8.4s3.6,1.6,3.6,3.6S14,15.6,12,15.6z M15.7,9.1c-0.5,0-0.8-0.4-0.8-0.8c0-0.5,0.4-0.8,0.8-0.8
	c0.5,0,0.9,0.4,0.9,0.8C16.6,8.7,16.2,9.1,15.7,9.1z"/>
<path id="mainCircle" class="st0" d="M12,0C5.4,0,0,5.4,0,12s5.4,12,12,12s12-5.4,12-12S18.6,0,12,0z M19,14.9
	c0,0.8-0.2,1.2-0.3,1.7c-0.2,0.5-0.4,0.9-0.8,1.2c-0.4,0.4-0.8,0.6-1.2,0.8c-0.5,0.2-1,0.3-1.7,0.3c-0.8,0-1,0-2.9,0s-2.1,0-2.9,0
	c-0.8,0-1.2-0.1-1.7-0.3c-0.5-0.2-0.8-0.4-1.2-0.8c-0.4-0.4-0.6-0.8-0.8-1.2c-0.2-0.4-0.3-1-0.3-1.7c0-0.8,0-1,0-2.9s0-2.1,0-2.9
	c0-0.8,0.2-1.2,0.3-1.7c0.2-0.5,0.4-0.8,0.8-1.2c0.4-0.4,0.8-0.6,1.2-0.8c0.5-0.2,1-0.3,1.7-0.3c0.8,0,1,0,2.9,0s2.1,0,2.9,0
	c0.7,0,1.2,0.2,1.7,0.3c0.5,0.2,0.8,0.4,1.2,0.8c0.4,0.4,0.6,0.8,0.8,1.2c0.2,0.5,0.3,1,0.3,1.7c0,0.8,0,1,0,2.9S19,14.1,19,14.9z"
	/>
</svg>
