<?xml version="1.0" encoding="utf-8"?>
<svg version="1.1" id="linkedInSymbolLayer" xmlns="http://www.w3.org/2000/svg" xmlns:xlink="http://www.w3.org/1999/xlink" x="0px" y="0px" viewBox="0 0 24 24" style="enable-background:new 0 0 24 24;" xml:space="preserve">
	<style type="text/css">
		.st0{}
	</style>
	<path id="linkedSymbol" class="st0" d="M12,0C5.4,0,0,5.4,0,12s5.4,12,12,12s12-5.4,12-12S18.6,0,12,0z M8.1,19H5.2V9.6h2.9V19z
		 M6.7,8.4C5.8,8.4,5,7.6,5,6.7C5,5.8,5.8,5,6.7,5c0.9,0,1.7,0.8,1.7,1.7C8.4,7.6,7.6,8.4,6.7,8.4z M19,19h-2.9v-4.5
		c0-1.1,0-2.5-1.5-2.5c-1.5,0-1.7,1.2-1.7,2.4V19H10V9.6h2.8v1.3h0c0.4-0.7,1.3-1.5,2.8-1.5c2.9,0,3.5,1.9,3.5,4.5V19z"/>
</svg>
